<?xml version="1.0" encoding="UTF-8" standalone="no"?>
<svg
   viewBox="0 0 73.945 73.945"
   version="1.1"
   id="svg187"
   sodipodi:docname="app_icon.svg"
   width="36.065834"
   height="36.065834"
   inkscape:version="1.2 (dc2aedaf03, 2022-05-15)"
   inkscape:export-filename="app_icon.png"
   inkscape:export-xdpi="1362.8411"
   inkscape:export-ydpi="1362.8411"
   xmlns:inkscape="http://www.inkscape.org/namespaces/inkscape"
   xmlns:sodipodi="http://sodipodi.sourceforge.net/DTD/sodipodi-0.dtd"
   xmlns="http://www.w3.org/2000/svg"
   xmlns:svg="http://www.w3.org/2000/svg">
  <defs
     id="defs191" />
  <sodipodi:namedview
     id="namedview189"
     pagecolor="#505050"
     bordercolor="#eeeeee"
     borderopacity="1"
     inkscape:showpageshadow="0"
     inkscape:pageopacity="0"
     inkscape:pagecheckerboard="0"
     inkscape:deskcolor="#505050"
     showgrid="false"
     inkscape:zoom="16.032608"
     inkscape:cx="-4.0854239"
     inkscape:cy="11.476611"
     inkscape:window-width="2299"
     inkscape:window-height="1077"
     inkscape:window-x="1293"
     inkscape:window-y="362"
     inkscape:window-maximized="0"
     inkscape:current-layer="svg187" />
  <rect
     style="fill:#ffffff;stroke-width:12.3985;stroke-miterlimit:2;paint-order:markers fill stroke"
     id="rect444"
     width="73.945"
     height="73.945"
     x="0"
     y="0" />
  <path
     fill="#f26a21"
     d="M 28.490787,10.597635 C 13.949542,15.270733 5.9245364,30.912969 10.597634,45.454212 15.270732,59.995457 30.912968,68.020463 45.454212,63.347365 59.995456,58.674267 68.020466,43.032031 63.347364,28.490787 58.674267,13.949543 43.03203,5.9245372 28.490787,10.597635 Z M 12.832239,44.728374 c -3.0664653,-9.541927 -0.163109,-19.59765 6.630417,-26.105733 0.929725,6.263418 2.609757,22.182941 2.675001,25.306495 l 3.22142,-0.627973 c -0.03263,-1.060215 -1.027593,-11.018071 -1.239635,-13.375009 1.207013,-2.471114 2.870733,-4.705719 4.72203,-5.301071 1.606633,-0.513796 2.495582,-0.269131 3.123554,1.704499 l 1.688188,5.260293 c 0.66875,2.071494 1.598476,3.474239 2.8218,4.273478 l 5.195049,16.156032 0.01631,0.06524 c 0.652439,2.511891 -0.530107,4.110368 -3.596573,5.097183 l -1.802363,0.57904 c -3.148021,1.011281 -5.301071,0.03262 -6.222642,-2.821801 L 29.061669,51.807338 C 28.15641,48.985537 29.363423,46.88142 32.470666,45.88645 l 3.988036,-1.280412 -0.92157,-2.854423 -4.045126,1.296724 c -4.836207,1.557699 -6.78537,5.031938 -5.333692,9.541926 l 1.100992,3.433463 c 1.516921,4.713876 4.746497,6.20633 9.868147,4.558921 l 1.859452,-0.595352 c 2.006251,-0.644284 3.47424,-1.443522 4.452899,-2.446647 l 0.187577,0.587195 2.854422,-0.92157 -3.506862,-10.912051 c -0.725839,-2.250915 0.595351,-4.346877 3.270353,-5.203204 l 1.304879,-0.415931 c 2.821801,-0.905259 4.852518,0.08156 5.717,2.772868 l 3.139866,9.770282 c -2.9686,3.572106 -6.948481,6.36944 -11.686822,7.894517 C 31.410453,65.394394 17.097562,58.046294 12.815928,44.736529 Z m 45.768628,5.447869 -2.511892,-7.812962 C 54.645453,37.869604 51.440344,36.279283 46.81618,37.763583 l -1.272258,0.407774 c -1.777897,0.570885 -3.254041,1.728965 -4.126679,3.22142 l -1.516922,-4.72203 c 0.913416,-0.04893 1.908386,-0.25282 3.017532,-0.603507 5.684379,-1.82683 7.706942,-5.945354 6.51624,-13.48103 l -3.205109,0.432241 c 0.954193,5.717001 -0.212043,9.150464 -4.085902,10.398254 -2.960444,0.954193 -4.355033,-0.01631 -5.309226,-2.993066 l -1.965475,-6.11662 c -1.003125,-3.115398 -3.506861,-3.47424 -5.668067,-2.781023 -2.373249,0.766616 -4.020658,2.585291 -5.423403,4.803586 -0.432241,-3.996192 -0.970504,-8.139183 -1.345657,-10.120968 2.030719,-1.427211 4.306101,-2.56898 6.785371,-3.368219 13.309765,-4.2816343 27.622655,3.066466 31.904289,16.376231 2.348783,7.299166 1.190702,14.883775 -2.511891,20.967773 z"
     id="path185"
     style="stroke-width:0.815549" />
</svg>
