<?xml version="1.0" encoding="UTF-8" standalone="no"?>
<svg
   viewBox="0 0 120 119.99999"
   version="1.1"
   id="svg6"
   sodipodi:docname="channel_img.svg"
   inkscape:version="1.2 (dc2aedaf03, 2022-05-15)"
   width="120"
   height="120"
   inkscape:export-filename="channel_img.png"
   inkscape:export-xdpi="240"
   inkscape:export-ydpi="240"
   xmlns:inkscape="http://www.inkscape.org/namespaces/inkscape"
   xmlns:sodipodi="http://sodipodi.sourceforge.net/DTD/sodipodi-0.dtd"
   xmlns="http://www.w3.org/2000/svg"
   xmlns:svg="http://www.w3.org/2000/svg">
  <defs
     id="defs10" />
  <sodipodi:namedview
     id="namedview8"
     pagecolor="#ffffff"
     bordercolor="#eeeeee"
     borderopacity="1"
     inkscape:showpageshadow="0"
     inkscape:pageopacity="1"
     inkscape:pagecheckerboard="true"
     inkscape:deskcolor="#505050"
     showgrid="false"
     inkscape:zoom="5.6683831"
     inkscape:cx="94.20676"
     inkscape:cy="52.748729"
     inkscape:window-width="2318"
     inkscape:window-height="1223"
     inkscape:window-x="888"
     inkscape:window-y="174"
     inkscape:window-maximized="0"
     inkscape:current-layer="svg6" />
  <path
     fill="#000000"
     d="m 86.28,101.71 c -4.66,0 -12.23,-0.16 -17.85,-6.27 C 64.25,90.77 62.96,87.07 61.19,78.71 59.26,70.51 58.78,67.61 50.57,68.09 42.21,68.73 39.31,72.27 32.88,81.92 29.66,86.75 26.45,99.53 15.51,108.7 12.94,106.45 4.25,104.2 2,101.46 4.9,95.03 12.45,80.31 19.05,69.21 25.81,57.95 29.67,50.87 31.11,48.14 c 1.45,-2.9 4.34,-7.4 8.69,-13.51 4.34,-6.27 7.88,-11.42 10.13,-15.6 2.25,-4.18 4.18,-7.08 5.79,-9.01 1.61,-1.77 2.73,-2.9 2.73,-3.38 C 58.61,6 59.25,6 59.74,6 c 1.13,0 1.13,0.16 2.57,1.77 0.64,0.96 1.45,1.61 2.57,2.25 11.1,8.85 10.94,12.71 -0.48,30.72 -5.79,9.01 -9.01,14.32 -9.81,15.92 -0.97,1.61 -0.8,2.9 0,3.7 2.9,1.29 12.06,10.62 13.83,13.51 0.96,1.61 1.93,4.18 2.9,8.53 0.96,4.02 1.61,6.6 2.41,7.72 1.45,2.41 6.11,3.86 7.88,1.77 0.64,-0.8 2.57,-4.34 5.79,-10.29 6.27,-11.9 27.67,-24.61 30.24,-2.09 0.64,5.31 -21.72,22.2 -31.37,22.2 z"
     id="path2"
     sodipodi:nodetypes="ccccccccccsccsccccccccccccc" />
  <path
     fill="#f26a21"
     d="M 65.309737,42.193458 C 45.751772,48.478772 34.958145,69.517569 41.243458,89.075534 47.528772,108.6335 68.567569,119.42713 88.125534,113.14181 107.6835,106.8565 118.47713,85.817701 112.19181,66.259737 105.9065,46.701772 84.867701,35.908145 65.309737,42.193458 Z M 44.249001,88.099281 c -4.124394,-12.833886 -0.219383,-26.358827 8.917905,-35.112196 1.250481,8.424295 3.510123,29.836043 3.597876,34.037221 l 4.332807,-0.844624 c -0.04388,-1.425987 -1.38211,-14.819299 -1.667308,-17.989378 1.623432,-3.323647 3.861135,-6.32919 6.351128,-7.129937 2.160919,-0.691055 3.356555,-0.361981 4.201178,2.292549 l 2.270611,7.075091 c 0.899469,2.78616 2.14995,4.672851 3.79532,5.747826 l 6.987338,21.729853 0.02194,0.08775 c 0.877531,3.378494 -0.712994,5.528444 -4.837388,6.855714 l -2.424178,0.77881 c -4.234086,1.36017 -7.129937,0.0439 -8.369449,-3.79533 l -1.349203,-4.212145 c -1.217574,-3.79532 0.405858,-6.625356 4.585098,-7.96359 l 5.363906,-1.722154 -1.239512,-3.839197 -5.44069,1.744092 c -6.504696,2.095105 -9.126319,6.767956 -7.173814,12.833886 l 1.480833,4.618008 c 2.040259,6.34016 6.384036,8.34751 13.272652,6.13175 l 2.500962,-0.80075 c 2.698407,-0.86656 4.672851,-1.94154 5.989147,-3.29074 l 0.25229,0.78978 3.839196,-1.23952 -4.716727,-14.676699 c -0.976253,-3.02748 0.800747,-5.846548 4.398623,-6.998307 l 1.755061,-0.559425 c 3.795317,-1.217574 6.526637,0.109691 7.689357,3.729505 l 4.22312,13.141022 c -3.99276,4.804484 -9.3457,8.566894 -15.718766,10.618124 -17.901626,5.75879 -37.152455,-4.12439 -42.91125,-22.026023 z m 61.558779,7.327381 -3.3785,-10.50843 c -1.94153,-6.043992 -6.2524,-8.182973 -12.471901,-6.186591 l -1.711185,0.548457 c -2.391271,0.767839 -4.376684,2.325456 -5.550381,4.332807 l -2.040259,-6.351128 c 1.228543,-0.06582 2.566777,-0.340043 4.058579,-0.811716 7.645486,-2.457086 10.365827,-7.996498 8.764338,-18.131977 l -4.31087,0.581364 c 1.283389,7.689363 -0.285197,12.307368 -5.495535,13.985645 -3.981796,1.283389 -5.857518,-0.02194 -7.140906,-4.025672 l -2.643561,-8.22685 c -1.349204,-4.190209 -4.716728,-4.672851 -7.623548,-3.740474 -3.192018,1.031098 -5.407783,3.477215 -7.294474,6.460819 -0.581364,-5.374875 -1.305326,-10.947195 -1.809906,-13.612694 2.731314,-1.919598 5.791702,-3.455277 9.126318,-4.530252 17.901626,-5.758795 37.152451,4.124394 42.911251,22.026019 3.15911,9.817375 1.60149,20.018669 -3.37849,28.201642 z"
     id="path4"
     style="stroke-width:1.09691" />
</svg>
