<?xml version="1.0" encoding="UTF-8" standalone="no"?>
<svg
   viewBox="0 0 73.945 73.945"
   version="1.1"
   id="svg187"
   sodipodi:docname="favicon.svg"
   width="36.065834"
   height="36.065834"
   inkscape:version="1.2 (dc2aedaf03, 2022-05-15)"
   inkscape:export-filename="favicon.png"
   inkscape:export-xdpi="723.40863"
   inkscape:export-ydpi="723.40863"
   xmlns:inkscape="http://www.inkscape.org/namespaces/inkscape"
   xmlns:sodipodi="http://sodipodi.sourceforge.net/DTD/sodipodi-0.dtd"
   xmlns="http://www.w3.org/2000/svg"
   xmlns:svg="http://www.w3.org/2000/svg">
  <defs
     id="defs191" />
  <sodipodi:namedview
     id="namedview189"
     pagecolor="#505050"
     bordercolor="#eeeeee"
     borderopacity="1"
     inkscape:showpageshadow="0"
     inkscape:pageopacity="0"
     inkscape:pagecheckerboard="0"
     inkscape:deskcolor="#505050"
     showgrid="false"
     inkscape:zoom="16.032608"
     inkscape:cx="3.8983052"
     inkscape:cy="16.466441"
     inkscape:window-width="2299"
     inkscape:window-height="1077"
     inkscape:window-x="1307"
     inkscape:window-y="307"
     inkscape:window-maximized="0"
     inkscape:current-layer="svg187" />
  <circle
     style="fill:#ffffff;stroke-width:12.3985;stroke-miterlimit:2;paint-order:markers fill stroke"
     id="path474"
     cx="36.9725"
     cy="36.9725"
     r="36.9725" />
  <path
     fill="#f26a21"
     d="M 26.572499,4.6324997 C 8.7424988,10.3625 -1.0975012,29.5425 4.6324988,47.3725 c 5.7300002,17.83 24.9100002,27.67 42.7400002,21.94 17.83,-5.73 27.670005,-24.91 21.94,-42.74 -5.73,-17.8300003 -24.91,-27.6700003 -42.74,-21.9400003 z M 7.3724988,46.4825 c -3.76,-11.7 -0.2,-24.03 8.1300002,-32.01 1.14,7.68 3.2,27.2 3.28,31.03 l 3.95,-0.77 c -0.04,-1.3 -1.26,-13.51 -1.52,-16.4 1.48,-3.03 3.52,-5.77 5.79,-6.5 1.97,-0.63 3.06,-0.33 3.83,2.09 l 2.07,6.45 c 0.82,2.54 1.96,4.26 3.46,5.24 l 6.37,19.81 0.02,0.08 c 0.8,3.08 -0.65,5.04 -4.41,6.25 l -2.21,0.71 c -3.86,1.24 -6.5,0.04 -7.63,-3.46 l -1.23,-3.84 c -1.11,-3.46 0.37,-6.04 4.18,-7.26 l 4.89,-1.57 -1.13,-3.5 -4.96,1.59 c -5.93,1.91 -8.32,6.17 -6.54,11.7 l 1.35,4.21 c 1.86,5.78 5.82,7.61 12.1,5.59 l 2.28,-0.73 c 2.46,-0.79 4.26,-1.77 5.46,-3 l 0.23,0.72 3.5,-1.13 -4.3,-13.38 c -0.89,-2.76 0.73,-5.33 4.01,-6.38 l 1.6,-0.51 c 3.46,-1.11 5.95,0.1 7.01,3.4 l 3.85,11.98 c -3.64,4.38 -8.52,7.81 -14.33,9.68 -16.32,5.25 -33.87,-3.76 -39.1200002,-20.08 z m 56.1200002,6.68 -3.08,-9.58 c -1.77,-5.51 -5.7,-7.46 -11.37,-5.64 l -1.56,0.5 c -2.18,0.7 -3.99,2.12 -5.06,3.95 l -1.86,-5.79 c 1.12,-0.06 2.34,-0.31 3.7,-0.74 6.97,-2.24 9.45,-7.29 7.99,-16.53 l -3.93,0.53 c 1.17,7.01 -0.26,11.22 -5.01,12.75 -3.63,1.17 -5.34,-0.02 -6.51,-3.67 l -2.41,-7.5 c -1.23,-3.82 -4.3,-4.26 -6.95,-3.41 -2.91,0.94 -4.93,3.17 -6.65,5.89 -0.53,-4.9 -1.19,-9.98 -1.65,-12.41 2.49,-1.7500003 5.28,-3.1500003 8.32,-4.1300003 16.32,-5.250001 33.87,3.7600003 39.12,20.0800003 2.88,8.95 1.46,18.25 -3.08,25.71 z"
     id="path185" />
</svg>
