<svg id="Layer_1" data-name="Layer 1" xmlns="http://www.w3.org/2000/svg" viewBox="0 0 24 24" stroke-width="1.5" width="24" height="24" color="#000000">
	<defs>
		<style>
			.cls-637642e7c3a86d32eae6f181-1{fill:none;stroke:currentColor;stroke-miterlimit:10;}
		</style>
	</defs>
	<path class="cls-637642e7c3a86d32eae6f181-1" d="M1.5,5.3v9.54a3.82,3.82,0,0,0,3.82,3.82H7.23v2.86L13,18.66h5.73a3.82,3.82,0,0,0,3.82-3.82V5.3a3.82,3.82,0,0,0-3.82-3.82H5.32A3.82,3.82,0,0,0,1.5,5.3Z">
	</path>
	<path class="cls-637642e7c3a86d32eae6f181-1" d="M7.23,13.89h6.2a3.34,3.34,0,0,0,3.34-3.34h0A3.34,3.34,0,0,0,13.43,7.2H9.14">
	</path>
	<polyline class="cls-637642e7c3a86d32eae6f181-1" points="12 4.34 9.14 7.21 12 10.07">
	</polyline>
</svg>
